<?xml version="1.0" standalone="no"?><!DOCTYPE svg PUBLIC "-//W3C//DTD SVG 1.1//EN" "http://www.w3.org/Graphics/SVG/1.1/DTD/svg11.dtd"><svg t="1610623420368" class="icon" viewBox="0 0 1024 1024" version="1.1" xmlns="http://www.w3.org/2000/svg" p-id="11451" xmlns:xlink="http://www.w3.org/1999/xlink" width="200" height="200"><defs><style type="text/css"></style></defs><path d="M431.46752 987.08992a44.21632 44.21632 0 0 1-30.592-12.28288l-235.4944-225.536a44.23168 44.23168 0 0 1 61.17888-63.88224l201.05728 192.55296 364.69248-443.17184a44.22656 44.22656 0 0 1 68.3008 56.20224l-394.98752 479.99488a44.25728 44.25728 0 0 1-34.15552 16.12288z" p-id="11452" fill="#ffffff"></path><path d="M426.34752 600.46848a44.22144 44.22144 0 0 1-30.592-12.288L160.26624 362.6496a44.22656 44.22656 0 0 1 61.17888-63.87712L422.5024 491.32032l364.69248-443.17184a44.22656 44.22656 0 0 1 68.3008 56.20224l-394.98752 480a44.23168 44.23168 0 0 1-34.16064 16.11776z" p-id="11453" fill="#ffffff"></path></svg>