<?xml version="1.0" standalone="no"?><!DOCTYPE svg PUBLIC "-//W3C//DTD SVG 1.1//EN" "http://www.w3.org/Graphics/SVG/1.1/DTD/svg11.dtd"><svg t="1610615595593" class="icon" viewBox="0 0 1024 1024" version="1.1" xmlns="http://www.w3.org/2000/svg" p-id="1540" xmlns:xlink="http://www.w3.org/1999/xlink" width="200" height="200"><defs><style type="text/css"></style></defs><path d="M863.43 275.83c-1.99 0.12-1.99 0.12-3.98 0.12-15.56 0.58-57.08 2.2-59.19 2.2-199.9 6.48-361.55 163.55-368.45 359.94-1.05 29.49-26.32 52.51-56.38 51.47-30.18-1.04-53.69-25.79-52.64-55.17 8.89-252.61 216.74-454.55 473.83-462.88 1.05 0 16.49-0.58 32.17-1.16l-84.8-20.93c-28.89-7.17-46.55-36.09-39.3-64.66 7.25-28.57 36.49-45.92 65.38-38.86l213.14 52.5c28.89 7.17 46.44 36.09 39.3 64.66L970.34 370.1c-7.25 28.57-36.49 45.92-65.38 38.86l-1.29-0.35c-28.89-7.17-46.44-36.09-39.3-64.66l17.31-68.82c-5.73 0.24-11.81 0.47-18.25 0.7z m9.95 364.3c0-29.49 24.45-53.32 54.62-53.32 30.18 0 54.62 23.83 54.62 53.32v245.36c0 58.87-48.89 106.64-109.13 106.64H109.23C48.99 992.13 0.1 944.36 0.1 885.49V138.77C0.1 79.9 48.99 32.13 109.23 32.13h318.01c30.18 0 54.62 23.83 54.62 53.32 0 29.49-24.45 53.32-54.62 53.32H109.23v746.72h764.15V640.13z" p-id="1541" fill="#ffffff"></path></svg>