<?xml version="1.0" standalone="no"?><!DOCTYPE svg PUBLIC "-//W3C//DTD SVG 1.1//EN" "http://www.w3.org/Graphics/SVG/1.1/DTD/svg11.dtd"><svg t="1610615681622" class="icon" viewBox="0 0 1024 1024" version="1.1" xmlns="http://www.w3.org/2000/svg" p-id="1918" xmlns:xlink="http://www.w3.org/1999/xlink" width="200" height="200"><defs><style type="text/css"></style></defs><path d="M250.48 240.69c36.53 0 66.13 29.6 66.13 66.12v423.57c0 36.52-29.61 66.12-66.13 66.12-36.53 0-66.13-29.6-66.13-66.12V306.81c0-36.52 29.6-66.12 66.13-66.12z m224.48 442.06h303.16c31.42 0 56.89 25.46 56.89 56.88 0 31.41-25.47 56.88-56.89 56.88H474.96c-31.42 0-56.89-25.46-56.89-56.88 0-31.41 25.47-56.88 56.89-56.88z m28.44-442.06h246.27c47.13 0 85.33 38.2 85.33 85.31v189.93c0 47.12-38.2 85.31-85.33 85.31H503.4c-47.13 0-85.33-38.2-85.33-85.31V326c0-47.11 38.2-85.31 85.33-85.31z m322.52-90.68H200.14c-62.84 0-113.78 50.93-113.78 113.75v503.75c0 62.82 50.94 113.75 113.78 113.75h625.78c62.84 0 113.78-50.93 113.78-113.75V263.76c0-62.82-50.94-113.75-113.78-113.75z m27.51-92.88c94.26 0 170.67 76.39 170.67 170.62V796.5c0 94.23-76.41 170.62-170.67 170.62H170.77C76.51 967.13 0.1 890.74 0.1 796.5V227.75c0-94.23 76.41-170.62 170.67-170.62h682.66z" p-id="1919" fill="#ffffff"></path></svg>