<svg xmlns="http://www.w3.org/2000/svg" viewBox="0 0 48 48"><path fill="#ffe57f" d="M44,24c0,11.045-8.955,20-20,20S4,35.045,4,24S12.955,4,24,4S44,12.955,44,24"/><path fill="#546e7a" d="M28.941,26.801c0,0-2.582,0-5.164-2.582s-2.582-5.164-2.582-5.164l8.66-8.656c-4.875-1.223-10.762,0.434-14.363,4.035c-5.363,5.367-0.563,12.266-2.039,13.742c-2.24,2.24-4.472,4.326-6.535,6.186c1.668,2.744,3.972,5.049,6.716,6.718c1.932-2.151,4.09-4.472,6.374-6.756c1.398-1.398,8.02,3.719,13.559-1.816c3.602-3.602,5.258-9.488,4.035-14.363L28.941,26.801z"/></svg>