<svg xmlns="http://www.w3.org/2000/svg" viewBox="0 0 48 48"><path fill="#90caf9" d="M40 45L8 45 8 3 30 3 40 13z"/><path fill="#e1f5fe" d="M38.5 14L29 14 29 4.5z"/><path fill="#616161" d="M41.349 36.766H44.175V48.756H41.349z" transform="rotate(-45.001 42.761 42.762)"/><path fill="#616161" d="M42,31c0,6.074-4.925,11-11,11s-11-4.926-11-11s4.925-11,11-11S42,24.926,42,31"/><path fill="#90caf9" d="M40,31c0,4.971-4.029,9-9,9c-4.972,0-9-4.029-9-9s4.028-9,9-9C35.971,22,40,26.029,40,31"/><path fill="#37474f" d="M42.517 39.587H45.344V48.272000000000006H42.517z" transform="rotate(-45.028 43.928 43.927)"/></svg>