<?xml version="1.0" standalone="no"?><!DOCTYPE svg PUBLIC "-//W3C//DTD SVG 1.1//EN" "http://www.w3.org/Graphics/SVG/1.1/DTD/svg11.dtd"><svg t="1610623487804" class="icon" viewBox="0 0 1024 1024" version="1.1" xmlns="http://www.w3.org/2000/svg" p-id="13065" xmlns:xlink="http://www.w3.org/1999/xlink" width="200" height="200"><defs><style type="text/css"></style></defs><path d="M382.836364 309.341091l323.351272 323.258182a7.261091 7.261091 0 0 1 1.210182 8.936727c-17.501091 27.927273-105.658182 175.941818-129.256727 371.618909a2.327273 2.327273 0 0 1-3.351273 1.722182L464.989091 948.689455c-0.930909-0.651636-1.396364-1.861818-0.837818-2.932364 10.286545-21.643636 109.102545-228.584727 99.002182-218.484364-10.658909 10.705455-79.034182 83.269818-130.234182 157.509818l-29.463273 40.541091-1.675636-1.163636c-14.429091-9.774545-116.363636-80.011636-149.504-124.928-0.558545-0.744727-0.651636-1.396364 0-2.048 23.505455-28.485818 145.687273-187.298909 145.687272-187.298909L190.184727 734.487273c-0.977455 0.558545-2.094545 0.465455-2.839272-0.418909-10.100364-11.170909-79.453091-87.831273-99.467637-123.810909-0.465455-0.744727-0.465455-1.396364 0.325818-2.048 19.781818-16.011636 131.630545-110.778182 131.630546-110.778182L62.370909 553.146182a2.420364 2.420364 0 0 1-2.792727-1.070546L1.303273 442.647273c-0.744727-1.303273-0.232727-2.932364 1.303272-3.258182 27.741091-5.538909 259.025455-53.527273 371.293091-131.072a6.842182 6.842182 0 0 1 8.936728 0.977454z m337.92 492.497454a80.849455 80.849455 0 1 1 0 161.745455 80.849455 80.849455 0 0 1 0-161.745455z m143.266909-48.593454a44.032 44.032 0 1 1 0 88.064 44.032 44.032 0 0 1 0-88.064z m28.672-730.298182a75.543273 75.543273 0 0 1 106.589091 106.961455h0.046545l-204.567273 204.101818c-0.325818 2.839273-0.651636 4.654545-0.837818 7.493818 45.521455 78.708364 45.335273 169.797818-21.550545 240.034909a5.445818 5.445818 0 0 1-7.586909 0.093091L440.413091 257.303273a5.445818 5.445818 0 0 1 0.139636-7.633455c70.097455-66.932364 161.28-67.165091 239.988364-21.504l7.400727-0.884363zM313.390545 104.680727a64.558545 64.558545 0 1 1 0 129.117091 64.558545 64.558545 0 0 1 0-129.117091z" p-id="13066" fill="#ffffff"></path></svg>