<svg xmlns="http://www.w3.org/2000/svg" viewBox="0 0 48 48"><path fill="#616161" d="M29.2,32l2.8-2.8l12,12L41.2,44L29.2,32z"/><path fill="#616161" d="M36,20c0,8.8-7.2,16-16,16S4,28.8,4,20S11.2,4,20,4S36,11.2,36,20"/><path fill="#37474F" d="M32.5,35.3l2.8-2.8l8.7,8.7L41.2,44L32.5,35.3z"/><path fill="#64B5F6" d="M7,20c0-7.2,5.8-13,13-13s13,5.8,13,13s-5.8,13-13,13S7,27.2,7,20"/><path fill="#E3F2FD" d="M23.9,14.1l2,2L16,26l-2-2L23.9,14.1z"/><path fill="#E3F2FD" d="M16.1,14.1L26,24l-2,2l-9.9-9.9L16.1,14.1z"/><path fill="#E3F2FD" d="M12 19L12 12 19 12M19 28L12 28 12 21M28 21L28 28 21 28M21 12L28 12 28 19"/></svg>