<?xml version="1.0" standalone="no"?><!DOCTYPE svg PUBLIC "-//W3C//DTD SVG 1.1//EN" "http://www.w3.org/Graphics/SVG/1.1/DTD/svg11.dtd"><svg t="1610615099107" class="icon" viewBox="0 0 1024 1024" version="1.1" xmlns="http://www.w3.org/2000/svg" p-id="1245" xmlns:xlink="http://www.w3.org/1999/xlink" width="200" height="200"><defs><style type="text/css"></style></defs><path d="M551.424 246.784l-253.44 253.44 72.192 72.192 253.44-253.44-72.192-72.192zM411.392 682.752a47.616 47.616 0 0 0-45.824 35.328l-2.048 7.168a47.36 47.36 0 0 0 33.536 58.112l254.464 68.096a40.704 40.704 0 0 0 12.288 1.792A47.616 47.616 0 0 0 709.632 819.2l2.048-7.168a47.36 47.36 0 0 0-33.536-58.112l-254.464-68.096a40.704 40.704 0 0 0-12.288-1.792z" p-id="1246" fill="#ffffff"></path><path d="M230.4 537.6a128 128 0 1 1-128 128 128 128 0 0 1 128-128m0-102.4a230.4 230.4 0 1 0 230.4 230.4 230.4 230.4 0 0 0-230.4-230.4zM665.6 102.4a76.8 76.8 0 1 1-76.8 76.8 76.8 76.8 0 0 1 76.8-76.8m0-102.4a179.2 179.2 0 1 0 179.2 179.2 179.2 179.2 0 0 0-179.2-179.2zM819.2 716.8a102.4 102.4 0 1 1-102.4 102.4 102.4 102.4 0 0 1 102.4-102.4m0-102.4a204.8 204.8 0 1 0 204.8 204.8 204.8 204.8 0 0 0-204.8-204.8z" p-id="1247" fill="#ffffff"></path></svg>